<?xml version="1.0" encoding="UTF-8"?><svg id="a" xmlns="http://www.w3.org/2000/svg" viewBox="0 0 24 24"><rect width="24" height="24" rx="2" ry="2" style="fill:#ffd8e4; stroke-width:0px;"/><path d="m0,0h24v24H0V0Z" style="fill:none; stroke-width:0px;"/><path d="m6.56,16.73v.72h.72l7.05-7.05-.72-.72-7.05,7.05Z" style="fill:#6750a4; isolation:isolate; opacity:.3; stroke-width:0px;"/><path d="m5,16.08v2.92h2.92l8.6-8.6-2.92-2.92-8.6,8.6Zm2.27,1.36h-.72v-.72l7.05-7.05.72.72-7.05,7.05Z" style="fill:#6750a4; stroke-width:0px;"/><path d="m16.95,5.23c-.16-.16-.35-.23-.55-.23s-.4.08-.54.23l-1.42,1.42,2.92,2.92,1.42-1.42c.3-.3.3-.79,0-1.1l-1.82-1.82Z" style="fill:#7d5260; stroke-width:0px;"/></svg>